# xmcd CD database file
#
# Track frame offsets:
#	150
#	27270
#	77165
#	92682
#	105460
#	119806
#	136756
#	170953
#	183163
#	200916
#	239097
#	272004
#	286679
#	301129
#
# Disc length: 4664 seconds
#
# Revision: 0
# Processed by: cddbd v1.5.2PL0 Copyright (c) Steve Scherf et al.
# Submitted via: CDex 1.79
#
DISCID=c712360e
DTITLE=Various Artist - Men in Jazz CD2
DYEAR=2009
DGENRE=Jazz
TTITLE0=Charles Mingus - Farewell Farewell
TTITLE1=Thelonius Monk - Epistrophy
TTITLE2=Louis Armstrong - Georgia on My Mind
TTITLE3=Chick Corea - Moments Notice
TTITLE4=Bing Crosby - Pennies from Heaven
TTITLE5=Duke Elington - Sophisticated Lady
TTITLE6=Stan Getz - Hits Medley
TTITLE7=Count Basie - Jive at Five
TTITLE8=Miles Davis - Embraceable Yoy
TTITLE9=Dizzy Gillespie - Rhumbop Concerto
TTITLE10=Dave Brubeck - Take Five
TTITLE11=Bing Crosby - Brother can you Spare a Dime
TTITLE12=Chick Corea - Come Rain or Come shine
TTITLE13=John Coltrane - Afro Blue
EXTD=YEAR: 2009
EXTT0=
EXTT1=
EXTT2=
EXTT3=
EXTT4=
EXTT5=
EXTT6=
EXTT7=
EXTT8=
EXTT9=
EXTT10=
EXTT11=
EXTT12=
EXTT13=
PLAYORDER=
